Coordinates
version=1
nRows=15
nColumns=42
inDegrees=yes

Units are S.I. units (second, meters, Newtons, ...)
If the header above contains a line with 'inDegrees', this indicates whether rotational values are in degrees (yes) or radians (no).

endheader
time	pelvis_tilt	pelvis_list	pelvis_rotation	pelvis_tx	pelvis_ty	pelvis_tz	hip_flexion_r	hip_adduction_r	hip_rotation_r	knee_angle_r	knee_adduction_r	knee_angle_r_beta	ankle_angle_r	subtalar_angle_r	mtp_angle_r	hip_flexion_l	hip_adduction_l	hip_rotation_l	knee_angle_l	knee_adduction_l	knee_angle_l_beta	ankle_angle_l	subtalar_angle_l	mtp_angle_l	lumbar_extension	lumbar_bending	lumbar_rotation	arm_flex_r	arm_add_r	arm_rot_r	elbow_flex_r	pro_sup_r	wrist_flex_r	wrist_dev_r	arm_flex_l	arm_add_l	arm_rot_l	elbow_flex_l	pro_sup_l	wrist_flex_l	wrist_dev_l
     12.65000000	     -9.23114084	      2.74900909	      1.02748886	      0.78930952	      0.95475753	      0.47381934	     31.84285474	     -4.43002420	     -2.64631822	      8.75728573	      6.25096954	      0.15284347	     -2.20122030	     -0.59966430	    -14.25611906	     -0.77036766	      0.37577657	     -7.54500606	     18.40984254	      6.43431604	      0.32131237	      5.31018672	      3.39188678	    -18.41565896	      0.00000000	      0.00000000	      0.00000000	      0.00000000	     -4.40471377	      0.00000000	     70.76267177	     90.00000001	      0.00000000	      0.00000000	      0.00000000	     -4.40471377	      0.00000000	     70.76267177	     90.00000001	      0.00000000	      0.00000000
     12.65500000	     -9.04560854	      2.76533335	      1.10444705	      0.78983758	      0.95429073	      0.47437206	     31.61895024	     -4.37442484	     -2.62120800	      9.47723331	      6.25096954	      0.16540893	     -2.43715121	     -1.04056044	    -14.26796118	     -1.06250597	      0.35454465	     -7.46120276	     18.98195003	      6.43431604	      0.33129753	      5.17644513	      3.15847802	    -18.51705636	      0.00000000	      0.00000000	      0.00000000	      0.00000000	     -4.41447659	      0.00000000	     70.77026707	     90.00000001	      0.00000000	      0.00000000	      0.00000000	     -4.41447659	      0.00000000	     70.77026707	     90.00000001	      0.00000000	      0.00000000
     12.66000000	     -8.87523760	      2.78718579	      1.18574756	      0.79053280	      0.95380128	      0.47491798	     31.36478677	     -4.33362607	     -2.61711758	     10.13355401	      6.25096954	      0.17686388	     -2.68967963	     -1.54151398	    -14.37205769	     -1.33721214	      0.34310895	     -7.35309019	     19.57094905	      6.43431604	      0.34157750	      5.01466987	      2.95644765	    -18.70581929	      0.00000000	      0.00000000	      0.00000000	      0.00000000	     -4.42366798	      0.00000000	     70.77741193	     90.00000001	      0.00000000	      0.00000000	      0.00000000	     -4.42366798	      0.00000000	     70.77741193	     90.00000001	      0.00000000	      0.00000000
     12.66500000	     -8.83603116	      2.70983410	      1.30680701	      0.79133849	      0.95314177	      0.47546865	     31.12100329	     -4.19289358	     -2.49554900	     10.47951392	      6.25096954	      0.18290202	     -3.88442478	     -3.20234163	    -16.29122529	     -1.39185598	      0.19071295	     -7.38921967	     20.29270174	      6.43431604	      0.35417446	      4.46316063	      2.75912388	    -20.62252022	      0.00000000	      0.00000000	      0.00000000	      0.00000000	     -4.51769001	      0.00000000	     70.85014431	     90.00000001	      0.00000000	      0.00000000	      0.00000000	     -4.51769001	      0.00000000	     70.85014431	     90.00000001	      0.00000000	      0.00000000
     12.67000000	     -8.64329810	      2.71259497	      1.42247208	      0.79204192	      0.95276559	      0.47587275	     30.79649373	     -4.18550570	     -2.67648199	     11.01739243	      6.25096954	      0.19228977	     -4.25495312	     -3.56289169	    -16.22940993	     -1.63342484	      0.17092116	     -7.25494165	     20.96527173	      6.43431604	      0.36591302	      4.19831107	      2.48661532	    -20.66092434	      0.00000000	      0.00000000	      0.00000000	      0.00000000	     -4.52535797	      0.00000000	     70.85605066	     90.00000001	      0.00000000	      0.00000000	      0.00000000	     -4.52535797	      0.00000000	     70.85605066	     90.00000001	      0.00000000	      0.00000000
     12.67500000	     -8.44910670	      2.63621856	      1.57934892	      0.79282112	      0.95247697	      0.47614661	     30.47861293	     -4.13577600	     -3.09469549	     11.54584443	      6.25096954	      0.20151300	     -4.83895621	     -4.15012164	    -16.05730243	     -1.79593188	      0.05909086	     -7.16703059	     21.78499244	      6.43431604	      0.38021985	      3.93250356	      2.16533683	    -20.88335423	      0.00000000	      0.00000000	      0.00000000	      0.00000000	     -4.53560891	      0.00000000	     70.86394030	     90.00000001	      0.00000000	      0.00000000	      0.00000000	     -4.53560891	      0.00000000	     70.86394030	     90.00000001	      0.00000000	      0.00000000
     12.68000000	     -8.32117998	      2.46335632	      1.74206928	      0.79351429	      0.95218169	      0.47642700	     30.22002834	     -4.00038901	     -3.52068591	     12.00761706	      6.25096954	      0.20957245	     -5.67670610	     -4.84091099	    -15.77311268	     -1.83585935	     -0.14185352	     -7.02405610	     22.68084230	      6.43431604	      0.39585538	      3.60505099	      1.82008867	    -21.34444300	      0.00000000	      0.00000000	      0.00000000	      0.00000000	     -4.54990147	      0.00000000	     70.87492878	     90.00000001	      0.00000000	      0.00000000	      0.00000000	     -4.54990147	      0.00000000	     70.87492878	     90.00000001	      0.00000000	      0.00000000
     12.68500000	     -8.35353097	      2.32228638	      1.77433957	      0.79407316	      0.95178355	      0.47691962	     30.12756780	     -3.81710299	     -3.57929908	     12.34464490	      6.25096954	      0.21545470	     -6.85369862	     -5.97197221	    -15.68335677	     -1.64546409	     -0.32095309	     -7.07790137	     23.62807435	      6.43431604	      0.41238769	      2.74388966	      1.33443541	    -23.25964842	      0.00000000	      0.00000000	      0.00000000	      0.00000000	     -4.63117712	      0.00000000	     70.93712468	     90.00000001	      0.00000000	      0.00000000	      0.00000000	     -4.63117712	      0.00000000	     70.93712468	     90.00000001	      0.00000000	      0.00000000
     12.69000000	     -8.28722433	      2.16561840	      1.85560434	      0.79459281	      0.95159976	      0.47728059	     30.09475976	     -3.70848750	     -4.02071307	     13.14543039	      6.25096954	      0.22943104	     -7.24291849	     -5.78396654	    -15.86901144	     -1.50395606	     -0.49351342	     -7.03984417	     24.68325032	      6.43431604	      0.43080399	      2.21679601	      0.80934919	    -23.89078061	      0.00000000	      0.00000000	      0.00000000	      0.00000000	     -4.68570601	      0.00000000	     70.97860642	     90.00000001	      0.00000000	      0.00000000	      0.00000000	     -4.68570601	      0.00000000	     70.97860642	     90.00000001	      0.00000000	      0.00000000
     12.69500000	     -8.13033673	      1.92884201	      1.82999383	      0.79501716	      0.95162999	      0.47788885	     29.90537120	     -3.45434024	     -4.18057543	     13.80246346	      6.25096954	      0.24089843	     -7.48771775	     -5.79713044	    -15.87079122	     -1.42077519	     -0.75637695	     -7.10559594	     25.80615682	      6.43431604	      0.45040240	      1.71969582	      0.31336920	    -24.01964910	      0.00000000	      0.00000000	      0.00000000	      0.00000000	     -4.69859199	      0.00000000	     70.98838072	     90.00000001	      0.00000000	      0.00000000	      0.00000000	     -4.69859199	      0.00000000	     70.98838072	     90.00000001	      0.00000000	      0.00000000
     12.70000000	     -8.05343911	      1.65613874	      1.83740396	      0.79534659	      0.95157895	      0.47845970	     29.83376107	     -3.19535810	     -4.38424372	     14.56712682	      6.25096954	      0.25424433	     -7.58349161	     -5.71001575	    -15.92551113	     -1.12582871	     -1.06055066	     -7.21636401	     27.13928608	      6.43431604	      0.47366990	      1.15795517	     -0.23158350	    -24.36278703	      0.00000000	      0.00000000	      0.00000000	      0.00000000	     -4.71344332	      0.00000000	     70.99963206	     90.00000001	      0.00000000	      0.00000000	      0.00000000	     -4.71344332	      0.00000000	     70.99963206	     90.00000001	      0.00000000	      0.00000000
     12.70500000	     -8.18476353	      1.44836999	      1.92279395	      0.79579641	      0.95132499	      0.47901681	     30.02619585	     -3.05564343	     -4.76924377	     15.47226098	      6.25096954	      0.27004190	     -7.43137036	     -5.16919640	    -15.92142310	     -0.51832443	     -1.29271192	     -7.22874206	     28.59954231	      6.43431604	      0.49915618	      0.31841203	     -0.76427747	    -25.32032957	      0.00000000	      0.00000000	      0.00000000	      0.00000000	     -4.75781828	      0.00000000	     71.03315193	     90.00000001	      0.00000000	      0.00000000	      0.00000000	     -4.75781828	      0.00000000	     71.03315193	     90.00000001	      0.00000000	      0.00000000
     12.71000000	     -7.93537435	      1.17953746	      1.88549060	      0.79609974	      0.95152379	      0.47978867	     29.75880854	     -2.74972585	     -4.91061756	     16.21895415	      6.25096954	      0.28307415	     -7.52988236	     -5.22411206	    -15.82062608	     -0.30449904	     -1.60402584	     -7.38052284	     30.08437107	      6.43431604	      0.52507133	     -0.37072192	     -1.43549044	    -25.39665582	      0.00000000	      0.00000000	      0.00000000	      0.00000000	     -4.76993094	      0.00000000	     71.04227938	     90.00000001	      0.00000000	      0.00000000	      0.00000000	     -4.76993094	      0.00000000	     71.04227938	     90.00000001	      0.00000000	      0.00000000
     12.71500000	     -7.66510928	      1.02450841	      1.87482192	      0.79625910	      0.95176298	      0.48049900	     29.46264667	     -2.56585399	     -4.99033578	     16.92365580	      6.25096954	      0.29537352	     -7.71503306	     -5.26126288	    -15.69191189	     -0.02979215	     -1.78444278	     -7.50971120	     31.67686333	      6.43431604	      0.55286556	     -1.22208964	     -2.00060486	    -25.39024284	      0.00000000	      0.00000000	      0.00000000	      0.00000000	     -4.77715324	      0.00000000	     71.04771656	     90.00000001	      0.00000000	      0.00000000	      0.00000000	     -4.77715324	      0.00000000	     71.04771656	     90.00000001	      0.00000000	      0.00000000
     12.72000000	     -8.00821220	      0.73155349	      2.04995396	      0.79632181	      0.95101144	      0.48089412	     29.92499342	     -2.35379860	     -5.32802749	     17.87623834	      6.25096954	      0.31199922	     -7.70176513	     -5.11820035	    -15.22278827	      1.14449201	     -2.07040880	     -7.39967059	     33.67510319	      6.43431604	      0.58774143	     -2.05173000	     -2.92469496	    -25.90818532	      0.00000000	      0.00000000	      0.00000000	      0.00000000	     -4.80483747	      0.00000000	     71.06852583	     90.00000001	      0.00000000	      0.00000000	      0.00000000	     -4.80483747	      0.00000000	     71.06852583	     90.00000001	      0.00000000	      0.00000000
